<svg fill="none" xmlns="http://www.w3.org/2000/svg" xmlns:svg="http://www.w3.org/2000/svg" class="pico-logo" viewBox="0 0 120 120">
	<path d="m70.98,95.71a2,2 0 0 0 -1.15,1.15l-7.81,20.32c-0.66,1.71 -3.08,1.71 -3.74,0l-7.81,-20.32a2,2 0 0 0 -1.15,-1.15l-20.32,-7.81c-1.71,-0.66 -1.71,-3.08 0,-3.74l20.32,-7.81a2,2 0 0 0 1.15,-1.15l7.81,-20.32c0.66,-1.71 3.08,-1.71 3.74,0l7.81,20.32c0.2,0.53 0.62,0.95 1.15,1.15l20.32,7.81c1.71,0.66 1.71,3.08 0,3.74l-20.32,7.81z" fill="#ffbf00"/>
  <path d="m91.72,51.1c-0.66,1.71 -3.08,1.71 -3.74,0l-2.81,-7.32a2,2 0 0 0 -1.15,-1.15l-7.32,-2.81c-1.71,-0.66 -1.71,-3.08 0,-3.74l7.32,-2.81a2,2 0 0 0 1.15,-1.15l2.81,-7.32c0.66,-1.71 3.08,-1.71 3.74,0l2.81,7.32c0.2,0.53 0.62,0.95 1.15,1.15l7.32,2.81c1.71,0.66 1.71,3.08 0,3.74l-7.32,2.81a2,2 0 0 0 -1.15,1.15l-2.81,7.32z" fill="#ff9500"/>
  <path d="m35.85,54.98a2,2 0 0 0 -1.15,1.15l-2.81,7.32c-0.66,1.71 -3.08,1.71 -3.74,0l-2.81,-7.32a2,2 0 0 0 -1.15,-1.15l-7.32,-2.81c-1.71,-0.66 -1.71,-3.08 0,-3.74l7.32,-2.81a2,2 0 0 0 1.15,-1.15l2.81,-7.32c0.66,-1.71 3.08,-1.71 3.74,0l2.81,7.32c0.2,0.53 0.62,0.95 1.15,1.15l7.32,2.81c1.71,0.66 1.71,3.08 0,3.74l-7.32,2.81z" fill="#ff9500"/>
  <path d="m50.77,28.99c-0.66,1.71 -3.08,1.71 -3.74,0l-2.81,-7.32a2,2 0 0 0 -1.15,-1.15l-7.32,-2.81c-1.71,-0.66 -1.71,-3.08 0,-3.74l7.32,-2.81a2,2 0 0 0 1.15,-1.15l2.81,-7.32c0.66,-1.71 3.08,-1.71 3.74,0l2.81,7.32c0.2,0.53 0.62,0.95 1.15,1.15l7.32,2.81c1.71,0.66 1.71,3.08 0,3.74l-7.32,2.81a2,2 0 0 0 -1.15,1.15l-2.81,7.32z" fill="#ffbf00"/>
</svg>